<svg xmlns="http://www.w3.org/2000/svg" viewBox="0 0 320 512">
  <path fill="#555" d="M208 0c-35.3 0-64 28.7-64 64s28.7 64 64 64 64-28.7 64-64S243.3 0 208 0zM280 160c-22.1 0-40 17.9-40 40s17.9 40 40 40 40-17.9 40-40S302.1 160 280 160zm-144 0c-17.7 0-32 14.3-32 32s14.3 32 32 32 32-14.3 32-32S153.7 160 136 160zm-80 32c-13.3 0-24 10.7-24 24s10.7 24 24 24 24-10.7 24-24S69.3 192 56 192zm0 64C27.3 256 0 284.7 0 320v54c0 70.7 57.3 128 128 128h67.5c30.1 0 54.5-24.4 54.5-54.5 0-21.7-3.1-43.2-9.4-64.1C216 303.9 140.3 256 56 256z"/>
</svg>
