<svg xmlns="http://www.w3.org/2000/svg" viewBox="0 0 320 512">
  <path fill="#555" d="M112 0C76.7 0 48 28.7 48 64S76.7 128 112 128s64-28.7 64-64S147.3 0 112 0zM40 160c-22.1 0-40 17.9-40 40s17.9 40 40 40 40-17.9 40-40-17.9-40-40-40zm144 0c-17.7 0-32 14.3-32 32s14.3 32 32 32 32-14.3 32-32-14.3-32-32-32zm80 32c-13.3 0-24 10.7-24 24s10.7 24 24 24 24-10.7 24-24-10.7-24-24-24zm0 64c-84.3 0-160 56.4-184.6 137.9-6.3 20.9-9.4 42.4-9.4 64.1C70 487.6 94.4 512 124.5 512H192c70.7 0 128-57.3 128-128V320c0-35.3-28.7-64-64-64z"/>
</svg>
